# xmcd CD database file
#
# Track frame offsets:
#	150
#	5617
#	37767
#	57778
#	72567
#	91544
#	121683
#	127545
#	150377
#	178319
#	211994
#	227509
#	256246
#	276562
#	299138
#
# Disc length: 4383 seconds
#
# Revision: 0
# Processed by: cddbd v1.5.2PL0 Copyright (c) Steve Scherf et al.
# Submitted via: CDex 1.70beta3
#
DISCID=c8111d0f
DTITLE=No Nukes Jazz Orchestra - No Nukes Jazz Orchestra
DYEAR=2012
DGENRE=Jazz
TTITLE0=Azzurro - prologue
TTITLE1=Theme of N>N>J>O
TTITLE2=Changeable Weather
TTITLE3=StrangeToy (奇妙なおもちゃ) 
TTITLE4=IntheMonthofMarch (三月のうた)
TTITLE5=New Song of March (突然のメッセージ)
TTITLE6=Azzurro-re-birth (命の源泉)
TTITLE7=Night Rush Hour (夜のラッシュ・アワー)
TTITLE8=Full Moon Night (満月の夕)
TTITLE9=Gray-zone (妄想と現実の狭間)
TTITLE10=Circle Line
TTITLE11=Blue March (宛名のない未来への手紙)
TTITLE12=Smile
TTITLE13=Promise
TTITLE14=Azzurro - epilogue
EXTD=YEAR: 2012
EXTT0=
EXTT1=
EXTT2=
EXTT3=
EXTT4=
EXTT5=
EXTT6=
EXTT7=
EXTT8=
EXTT9=
EXTT10=
EXTT11=
EXTT12=
EXTT13=
EXTT14=
PLAYORDER=
